<svg width="184" height="182" viewBox="0 0 184 182" fill="none" xmlns="http://www.w3.org/2000/svg">
<ellipse cx="92.8201" cy="90.9998" rx="45.5" ry="83.72" stroke="white" stroke-width="5"/>
<ellipse cx="91.0003" cy="90.9996" rx="47.32" ry="83.72" transform="rotate(-90 91.0003 90.9996)" stroke="white" stroke-width="5"/>
<ellipse cx="91.6755" cy="90.9997" rx="45.593" ry="83.5715" transform="rotate(-45.747 91.6755 90.9997)" stroke="white" stroke-width="5"/>
<ellipse cx="91.6752" cy="91" rx="45.593" ry="83.5715" transform="rotate(-134.304 91.6752 91)" stroke="white" stroke-width="5"/>
<path d="M90.6926 93.5851C84.256 92.1062 72.6365 87.4311 77.6513 80.5615C80.1731 78.5579 86.3119 78.1285 90.6926 92.4402C90.9568 93.8475 90.707 98.3079 87.5944 104.891C83.7036 113.12 76.0662 113.836 73.1841 108.899C70.8785 104.949 72.8959 101.671 74.1928 100.526C75.6339 98.8566 80.1875 95.1308 86.8739 93.5851C90.9327 93.6328 99.6846 93.4706 102.221 92.4402C107.168 91.1521 117.251 86.372 118 77.5561C117.64 74.9084 115.579 69.7133 110.218 70.114C104.858 70.5147 101.308 74.4314 100.203 76.3396C97.9938 79.6551 93.834 88.2325 94.8715 96.0181C96.1685 105.75 102.005 110.401 103.157 111.117C105.751 112.476 111.357 113.278 113.028 105.607C112.932 103.078 110.089 97.2489 99.4828 94.1576C96.865 93.9667 90.6782 93.4706 86.8739 93.0126C82.9351 92.631 73.8758 90.2505 69.1493 83.7816C63.2411 75.6956 70.7344 69.0406 76.9308 70.114C83.1272 71.1874 90.0441 82.5651 90.6926 89.8641C91.2113 95.7032 88.3629 100.55 86.8739 102.244C85.3368 104.104 81.7294 106.709 79.5967 102.244C78.8522 100.646 79.4093 96.7909 87.5944 94.1576C89.828 93.9429 95.2318 93.2989 98.9785 92.4402C103.662 91.3668 111.876 85.7853 107.264 80.5615C105.703 78.9128 101.587 77.406 97.6095 84.5688C92.638 93.5223 95.448 96.8768 96.3846 99.9538C97.3213 103.031 101.356 106.466 104.31 103.818C107.264 101.17 104.454 97.0199 100.131 95.3741C95.8082 93.7282 91.7013 93.442 90.6926 93.5851Z" stroke="url(#paint0_linear_663_623)" stroke-width="4"/>
<defs>
<linearGradient id="paint0_linear_663_623" x1="92.5" y1="112" x2="92.5" y2="70" gradientUnits="userSpaceOnUse">
<stop stop-color="#F93564"/>
<stop offset="0.735577" stop-color="#6257C9"/>
</linearGradient>
</defs>
</svg>
