<svg width="89" height="71" viewBox="0 0 89 71" fill="none" xmlns="http://www.w3.org/2000/svg">
<rect width="89" height="71" fill="transparent"/>
<g id="Landing page" clip-path="url(#clip0_0_1)">
<rect width="1440" height="5584" transform="translate(-433 -228)" fill="url(#paint0_linear_0_1)"/>
<g id="Group 1000005092">
<path id="Vector 8" d="M60.8596 9.88855C41.6379 4.20642 5.77247 17.1117 1.66587 40.3911C-6.17462 84.8371 57.5065 68.7054 72.8351 58.9026C91.1549 47.1869 94.8699 22.7869 72.8351 7.82479C65.4301 2.79662 49.6483 -0.43274 33.5555 1.63352" stroke="#15B37E" stroke-width="2"/>
<path id="is" d="M35.508 26.784C35.34 26.784 35.228 26.588 35.172 26.196C35.172 25.748 35.172 25.468 35.172 25.356C35.172 25.188 35.2 24.824 35.256 24.264C35.312 23.704 35.48 23.396 35.76 23.34C36.544 23.228 37.328 23.088 38.112 22.92C38.896 22.752 39.68 22.556 40.464 22.332C40.576 22.276 40.744 22.248 40.968 22.248C41.248 22.248 41.388 22.388 41.388 22.668C41.388 23.284 40.996 23.928 40.212 24.6C39.484 25.216 38.644 25.748 37.692 26.196C36.796 26.588 36.068 26.784 35.508 26.784ZM28.704 54C25.96 54 24.588 52.6 24.588 49.8C24.588 48.624 24.756 47.42 25.092 46.188C25.484 44.956 25.904 43.808 26.352 42.744C26.856 41.512 27.416 40.308 28.032 39.132C28.648 37.956 29.264 36.78 29.88 35.604C30.16 35.1 30.412 34.596 30.636 34.092C30.916 33.532 31.196 33 31.476 32.496C31.756 32.104 32.288 31.768 33.072 31.488C33.856 31.208 34.472 31.068 34.92 31.068C34.976 31.068 34.976 31.096 34.92 31.152C34.864 31.152 34.836 31.152 34.836 31.152C34.892 31.152 34.92 31.18 34.92 31.236C35.032 31.124 35.172 31.068 35.34 31.068C35.564 31.068 35.704 31.18 35.76 31.404C35.816 31.572 35.844 31.74 35.844 31.908C35.844 32.3 35.676 32.888 35.34 33.672C35.06 34.456 34.696 35.212 34.248 35.94C33.856 36.612 33.464 37.032 33.072 37.2C32.568 38.376 31.896 39.664 31.056 41.064C30.272 42.464 29.544 43.892 28.872 45.348C28.2 46.748 27.864 48.12 27.864 49.464C27.864 51.032 28.704 51.816 30.384 51.816C31.168 51.816 32.008 51.564 32.904 51.06C33.856 50.556 34.78 49.968 35.676 49.296C36.572 48.568 37.328 47.952 37.944 47.448C38.616 46.944 39.036 46.692 39.204 46.692C39.26 46.692 39.288 46.72 39.288 46.776C39.288 47 39.204 47.252 39.036 47.532C38.868 47.756 38.728 47.924 38.616 48.036C37.944 48.932 37.048 49.856 35.928 50.808C34.808 51.704 33.604 52.46 32.316 53.076C31.084 53.692 29.88 54 28.704 54ZM40.0105 55.932C39.7865 55.932 39.2825 55.876 38.4985 55.764C37.7145 55.708 37.3225 55.456 37.3225 55.008C37.3225 54.728 37.5185 54.42 37.9105 54.084C38.3585 53.804 38.6945 53.58 38.9185 53.412C40.4865 52.516 42.4465 51.872 44.7985 51.48C47.1505 51.032 49.1945 50.724 50.9305 50.556C51.0425 50.332 51.0985 50.108 51.0985 49.884C51.0985 48.988 50.6785 48.176 49.8385 47.448C48.9985 46.72 48.0185 45.992 46.8985 45.264C45.8345 44.536 44.8825 43.724 44.0425 42.828C43.2025 41.876 42.7825 40.784 42.7825 39.552C42.7825 39.216 42.8385 38.908 42.9505 38.628C43.0625 38.292 43.1745 37.984 43.2865 37.704C44.5745 35.296 46.3105 33.476 48.4945 32.244C50.7345 31.012 53.1425 30.116 55.7185 29.556C55.9425 29.444 56.1665 29.388 56.3905 29.388C56.6145 29.388 56.8385 29.388 57.0625 29.388C57.8465 29.388 58.4905 29.612 58.9945 30.06C59.5545 30.452 59.8345 31.068 59.8345 31.908C59.8345 32.972 59.4425 34.008 58.6585 35.016C57.8745 35.968 56.9785 36.584 55.9705 36.864H55.7185C55.6625 36.864 55.6345 36.808 55.6345 36.696C55.6345 36.248 55.7185 35.8 55.8865 35.352C56.1105 34.904 56.2225 34.456 56.2225 34.008C56.2225 33.224 55.9145 32.692 55.2985 32.412C54.7385 32.076 54.0945 31.908 53.3665 31.908C51.7985 31.908 50.2865 32.412 48.8305 33.42C47.4305 34.372 46.7305 35.688 46.7305 37.368C46.7305 38.712 47.0945 39.804 47.8225 40.644C48.6065 41.484 49.4745 42.212 50.4265 42.828C51.3785 43.444 52.2185 44.116 52.9465 44.844C53.7305 45.516 54.1225 46.412 54.1225 47.532C54.1225 48.092 53.9825 48.624 53.7025 49.128C53.4785 49.632 53.2265 50.108 52.9465 50.556C53.4505 50.5 53.9265 50.472 54.3745 50.472C54.8785 50.416 55.3825 50.388 55.8865 50.388C56.2225 50.388 56.3905 50.472 56.3905 50.64C56.3905 50.864 56.2785 51.032 56.0545 51.144C55.8305 51.256 55.6345 51.34 55.4665 51.396C54.9065 51.452 54.3465 51.536 53.7865 51.648C53.2265 51.76 52.6385 51.872 52.0225 51.984C50.4545 53.44 48.5785 54.448 46.3945 55.008C44.2665 55.624 42.1385 55.932 40.0105 55.932Z" fill="white"/>
</g>
</g>
<defs>
<linearGradient id="paint0_linear_0_1" x1="721.92" y1="0" x2="721.92" y2="5584" gradientUnits="userSpaceOnUse">
<stop stop-color="#28274C"/>
<stop offset="0.472216" stop-color="#181831"/>
<stop offset="0.995833" stop-color="#10101C"/>
</linearGradient>
<clipPath id="clip0_0_1">
<rect width="1440" height="5584" fill="white" transform="translate(-433 -228)"/>
</clipPath>
</defs>
</svg>
