<svg width="387" height="384" viewBox="0 0 387 384" fill="none" xmlns="http://www.w3.org/2000/svg">
<ellipse cx="195.754" cy="191.915" rx="95.9575" ry="176.562" stroke="white" strokeWidth="2"/>
<ellipse cx="191.915" cy="191.914" rx="99.7958" ry="176.562" transform="rotate(-90 191.915 191.914)" stroke="white" strokeWidth="2"/>
<ellipse cx="193.34" cy="191.915" rx="96.1536" ry="176.249" transform="rotate(-45.747 193.34 191.915)" stroke="white" strokeWidth="2"/>
<ellipse cx="193.339" cy="191.915" rx="96.1536" ry="176.249" transform="rotate(-134.304 193.339 191.915)" stroke="white" strokeWidth="2"/>
<path d="M187.018 202.84C169.579 198.785 138.098 185.968 151.685 167.134C158.517 161.641 175.149 160.464 187.018 199.701C187.734 203.559 187.057 215.788 178.624 233.837C168.083 256.399 147.39 258.361 139.581 244.824C133.334 233.994 138.8 225.009 142.314 221.87C146.219 217.292 158.556 207.078 176.672 202.84C187.669 202.971 211.381 202.526 218.253 199.701C231.657 196.17 258.974 183.064 261.005 158.894C260.029 151.635 254.445 137.392 239.921 138.491C225.398 139.589 215.78 150.327 212.787 155.559C206.8 164.649 195.53 188.165 198.341 209.51C201.855 236.192 217.667 248.944 220.79 250.906C227.818 254.633 243.006 256.83 247.535 235.799C247.275 228.867 239.57 212.885 210.835 204.409C203.742 203.886 186.979 202.526 176.672 201.27C166 200.224 141.455 193.698 128.649 175.962C112.642 153.793 132.944 135.548 149.732 138.491C166.521 141.434 185.261 172.627 187.018 192.638C188.424 208.647 180.706 221.935 176.672 226.579C172.507 231.679 162.734 238.821 156.955 226.579C154.938 222.197 156.448 211.629 178.624 204.409C184.676 203.821 199.317 202.055 209.468 199.701C222.157 196.758 244.411 181.456 231.918 167.134C227.688 162.614 216.535 158.483 205.759 178.12C192.289 202.668 199.903 211.865 202.44 220.301C204.978 228.737 215.91 238.154 223.914 230.895C231.918 223.636 224.304 212.257 212.591 207.745C200.879 203.232 189.751 202.448 187.018 202.84Z" stroke="white" strokeWidth="2"/>
</svg>
