<svg width="387" height="384" viewBox="0 0 387 384" fill="none" xmlns="http://www.w3.org/2000/svg">
<ellipse cx="195.754" cy="191.916" rx="95.9575" ry="176.562" stroke="white" stroke-width="5"/>
<ellipse cx="191.916" cy="191.914" rx="99.7958" ry="176.562" transform="rotate(-90 191.916 191.914)" stroke="white" stroke-width="5"/>
<ellipse cx="193.34" cy="191.915" rx="96.1536" ry="176.249" transform="rotate(-45.747 193.34 191.915)" stroke="white" stroke-width="5"/>
<ellipse cx="193.339" cy="191.915" rx="96.1536" ry="176.249" transform="rotate(-134.304 193.339 191.915)" stroke="white" stroke-width="5"/>
<path d="M187.018 202.84C169.579 198.785 138.097 185.968 151.684 167.134C158.517 161.641 175.149 160.464 187.018 199.701C187.734 203.559 187.057 215.788 178.624 233.837C168.082 256.399 147.39 258.361 139.581 244.824C133.334 233.994 138.8 225.009 142.314 221.87C146.218 217.292 158.556 207.078 176.672 202.84C187.669 202.971 211.381 202.526 218.252 199.701C231.657 196.17 258.974 183.064 261.004 158.894C260.028 151.635 254.445 137.392 239.921 138.491C225.397 139.589 215.78 150.327 212.786 155.559C206.8 164.649 195.529 188.165 198.341 209.51C201.854 236.192 217.667 248.944 220.79 250.906C227.818 254.633 243.006 256.83 247.535 235.799C247.274 228.867 239.57 212.885 210.834 204.409C203.741 203.886 186.979 202.526 176.672 201.27C166 200.224 141.455 193.698 128.649 175.962C112.642 153.793 132.944 135.548 149.732 138.491C166.521 141.434 185.261 172.627 187.018 192.638C188.424 208.647 180.706 221.935 176.672 226.579C172.507 231.679 162.733 238.821 156.955 226.579C154.938 222.197 156.448 211.629 178.624 204.409C184.676 203.821 199.317 202.055 209.468 199.701C222.157 196.758 244.411 181.456 231.917 167.134C227.688 162.614 216.535 158.483 205.759 178.12C192.289 202.668 199.902 211.865 202.44 220.301C204.978 228.737 215.91 238.154 223.914 230.895C231.917 223.636 224.304 212.257 212.591 207.745C200.878 203.232 189.751 202.448 187.018 202.84Z" stroke="url(#paint0_linear_576_621)" stroke-width="4"/>
<defs>
<linearGradient id="paint0_linear_576_621" x1="191.915" y1="253.327" x2="191.915" y2="138.178" gradientUnits="userSpaceOnUse">
<stop stop-color="#F93564"/>
<stop offset="0.735577" stop-color="#6257C9"/>
</linearGradient>
</defs>
</svg>
